<svg xmlns="http://www.w3.org/2000/svg" viewBox="0 0 1000 900">
  <!-- Background -->
  <rect width="1000" height="900" fill="#f8f9fa" rx="10" ry="10"/>
  
  <!-- Title -->
  <text x="500" y="50" font-family="Arial, sans-serif" font-size="28" font-weight="bold" text-anchor="middle" fill="#333">PSLV Software Architecture</text>
  
  <!-- Layer Backgrounds -->
  <rect x="50" y="90" width="900" height="160" fill="#e1f5fe" rx="10" ry="10" stroke="#0288d1" stroke-width="2"/>
  <rect x="50" y="280" width="900" height="220" fill="#e8f5e9" rx="10" ry="10" stroke="#43a047" stroke-width="2"/>
  <rect x="50" y="530" width="900" height="120" fill="#fff3e0" rx="10" ry="10" stroke="#ef6c00" stroke-width="2"/>
  <rect x="50" y="680" width="900" height="150" fill="#e8eaf6" rx="10" ry="10" stroke="#3949ab" stroke-width="2"/>
  
  <!-- Layer Labels -->
  <text x="70" y="120" font-family="Arial, sans-serif" font-size="20" font-weight="bold" fill="#0288d1">Presentation Layer</text>
  <text x="70" y="310" font-family="Arial, sans-serif" font-size="20" font-weight="bold" fill="#43a047">Business Logic Layer</text>
  <text x="70" y="560" font-family="Arial, sans-serif" font-size="20" font-weight="bold" fill="#ef6c00">Data Access Layer</text>
  <text x="70" y="710" font-family="Arial, sans-serif" font-size="20" font-weight="bold" fill="#3949ab">Database Layer</text>
  
  <!-- Presentation Layer Components -->
  <rect x="100" y="150" width="140" height="70" rx="5" ry="5" fill="#81d4fa" stroke="#0288d1" stroke-width="2"/>
  <text x="170" y="190" font-family="Arial, sans-serif" font-size="16" text-anchor="middle" fill="#333">Login Portal</text>
  
  <rect x="270" y="150" width="140" height="70" rx="5" ry="5" fill="#81d4fa" stroke="#0288d1" stroke-width="2"/>
  <text x="340" y="190" font-family="Arial, sans-serif" font-size="16" text-anchor="middle" fill="#333">User Dashboard</text>
  
  <rect x="440" y="150" width="140" height="70" rx="5" ry="5" fill="#81d4fa" stroke="#0288d1" stroke-width="2"/>
  <text x="510" y="190" font-family="Arial, sans-serif" font-size="16" text-anchor="middle" fill="#333">BM Admin Panel</text>
  
  <rect x="610" y="150" width="140" height="70" rx="5" ry="5" fill="#81d4fa" stroke="#0288d1" stroke-width="2"/>
  <text x="680" y="190" font-family="Arial, sans-serif" font-size="16" text-anchor="middle" fill="#333">Super Admin</text>
  
  <rect x="780" y="150" width="140" height="70" rx="5" ry="5" fill="#81d4fa" stroke="#0288d1" stroke-width="2"/>
  <text x="850" y="180" font-family="Arial, sans-serif" font-size="16" text-anchor="middle" fill="#333">Solution</text>
  <text x="850" y="200" font-family="Arial, sans-serif" font-size="16" text-anchor="middle" fill="#333">Management UI</text>
  
  <!-- Business Logic Layer Components -->
  <rect x="100" y="320" width="160" height="80" rx="5" ry="5" fill="#a5d6a7" stroke="#43a047" stroke-width="2"/>
  <text x="180" y="360" font-family="Arial, sans-serif" font-size="16" text-anchor="middle" fill="#333">Authentication</text>
  <text x="180" y="385" font-family="Arial, sans-serif" font-size="16" text-anchor="middle" fill="#333">Service</text>
  
  <rect x="290" y="320" width="160" height="80" rx="5" ry="5" fill="#a5d6a7" stroke="#43a047" stroke-width="2"/>
  <text x="370" y="370" font-family="Arial, sans-serif" font-size="16" text-anchor="middle" fill="#333">User Service</text>
  
  <rect x="480" y="320" width="160" height="80" rx="5" ry="5" fill="#a5d6a7" stroke="#43a047" stroke-width="2"/>
  <text x="560" y="360" font-family="Arial, sans-serif" font-size="16" text-anchor="middle" fill="#333">Access Management</text>
  <text x="560" y="385" font-family="Arial, sans-serif" font-size="16" text-anchor="middle" fill="#333">Service</text>
  
  <rect x="670" y="320" width="160" height="80" rx="5" ry="5" fill="#a5d6a7" stroke="#43a047" stroke-width="2"/>
  <text x="750" y="370" font-family="Arial, sans-serif" font-size="16" text-anchor="middle" fill="#333">Solution Service</text>
  
  <rect x="290" y="430" width="160" height="80" rx="5" ry="5" fill="#a5d6a7" stroke="#43a047" stroke-width="2"/>
  <text x="370" y="470" font-family="Arial, sans-serif" font-size="16" text-anchor="middle" fill="#333">Installation</text>
  <text x="370" y="495" font-family="Arial, sans-serif" font-size="16" text-anchor="middle" fill="#333">Service</text>
  
  <rect x="480" y="430" width="160" height="80" rx="5" ry="5" fill="#a5d6a7" stroke="#43a047" stroke-width="2"/>
  <text x="560" y="470" font-family="Arial, sans-serif" font-size="16" text-anchor="middle" fill="#333">Business Rules</text>
  <text x="560" y="495" font-family="Arial, sans-serif" font-size="16" text-anchor="middle" fill="#333">Engine</text>
  
  <!-- Data Access Layer Components -->
  <rect x="180" y="570" width="250" height="70" rx="5" ry="5" fill="#ffcc80" stroke="#ef6c00" stroke-width="2"/>
  <text x="305" y="610" font-family="Arial, sans-serif" font-size="16" text-anchor="middle" fill="#333">Data Access Layer</text>
  
  <rect x="550" y="570" width="250" height="70" rx="5" ry="5" fill="#ffcc80" stroke="#ef6c00" stroke-width="2"/>
  <text x="675" y="610" font-family="Arial, sans-serif" font-size="16" text-anchor="middle" fill="#333">External API Integration</text>
  
  <!-- Database Layer Components -->
  <g>
    <path d="M150,730 C150,710 190,710 190,730 L190,780 C190,800 150,800 150,780 Z" fill="#c5cae9" stroke="#3949ab" stroke-width="2"/>
    <path d="M150,730 C150,750 190,750 190,730" fill="none" stroke="#3949ab" stroke-width="2"/>
    <text x="170" y="760" font-family="Arial, sans-serif" font-size="16" text-anchor="middle" fill="#333">Users</text>
  </g>
  
  <g>
    <path d="M310,730 C310,710 350,710 350,730 L350,780 C350,800 310,800 310,780 Z" fill="#c5cae9" stroke="#3949ab" stroke-width="2"/>
    <path d="M310,730 C310,750 350,750 350,730" fill="none" stroke="#3949ab" stroke-width="2"/>
    <text x="330" y="760" font-family="Arial, sans-serif" font-size="16" text-anchor="middle" fill="#333">Access</text>
    <text x="330" y="780" font-family="Arial, sans-serif" font-size="16" text-anchor="middle" fill="#333">Rights</text>
  </g>
  
  <g>
    <path d="M470,730 C470,710 510,710 510,730 L510,780 C510,800 470,800 470,780 Z" fill="#c5cae9" stroke="#3949ab" stroke-width="2"/>
    <path d="M470,730 C470,750 510,750 510,730" fill="none" stroke="#3949ab" stroke-width="2"/>
    <text x="490" y="760" font-family="Arial, sans-serif" font-size="16" text-anchor="middle" fill="#333">BM</text>
    <text x="490" y="780" font-family="Arial, sans-serif" font-size="16" text-anchor="middle" fill="#333">Roles</text>
  </g>
  
  <g>
    <path d="M630,730 C630,710 670,710 670,730 L670,780 C670,800 630,800 630,780 Z" fill="#c5cae9" stroke="#3949ab" stroke-width="2"/>
    <path d="M630,730 C630,750 670,750 670,730" fill="none" stroke="#3949ab" stroke-width="2"/>
    <text x="650" y="760" font-family="Arial, sans-serif" font-size="16" text-anchor="middle" fill="#333">Solutions</text>
  </g>
  
  <g>
    <path d="M750,730 C750,710 850,710 850,730 L850,780 C850,800 750,800 750,780 Z" fill="#c5cae9" stroke="#3949ab" stroke-width="2"/>
    <path d="M750,730 C750,750 850,750 850,730" fill="none" stroke="#3949ab" stroke-width="2"/>
    <text x="800" y="760" font-family="Arial, sans-serif" font-size="16" text-anchor="middle" fill="#333">Solution</text>
    <text x="800" y="780" font-family="Arial, sans-serif" font-size="16" text-anchor="middle" fill="#333">Repository</text>
  </g>
  
  <!-- Connections with improved routing to avoid overlaps -->
  <!-- Login to Auth -->
  <path d="M170,220 L170,320" fill="none" stroke="#666" stroke-width="2" stroke-dasharray="5,5"/>
  <polygon points="170,315 165,305 175,305" fill="#666"/>
  
  <!-- Dashboard to User Service -->
  <path d="M340,220 L340,260 L370,260 L370,320" fill="none" stroke="#666" stroke-width="2" stroke-dasharray="5,5"/>
  <polygon points="370,315 365,305 375,305" fill="#666"/>
  
  <!-- Dashboard to Solution Service -->
  <path d="M340,220 L340,260 L750,260 L750,320" fill="none" stroke="#666" stroke-width="2" stroke-dasharray="5,5"/>
  <polygon points="750,315 745,305 755,305" fill="#666"/>
  
  <!-- BM Panel to Access Management -->
  <path d="M510,220 L510,260 L560,260 L560,320" fill="none" stroke="#666" stroke-width="2" stroke-dasharray="5,5"/>
  <polygon points="560,315 555,305 565,305" fill="#666"/>
  
  <!-- Super Admin to User Service -->
  <path d="M680,220 L680,260 L370,260 L370,320" fill="none" stroke="#666" stroke-width="2" stroke-dasharray="5,5"/>
  <polygon points="370,315 365,305 375,305" fill="#666"/>
  
  <!-- Solution UI to Solution Service -->
  <path d="M850,220 L850,260 L750,260 L750,320" fill="none" stroke="#666" stroke-width="2" stroke-dasharray="5,5"/>
  <polygon points="750,315 745,305 755,305" fill="#666"/>
  
  <!-- Auth to DAL -->
  <path d="M180,400 L180,510 L250,510 L250,570" fill="none" stroke="#666" stroke-width="2" stroke-dasharray="5,5"/>
  <polygon points="250,565 245,555 255,555" fill="#666"/>
  
  <!-- Auth to API -->
  <path d="M180,400 L180,520 L675,520 L675,570" fill="none" stroke="#666" stroke-width="2" stroke-dasharray="5,5"/>
  <polygon points="675,565 670,555 680,555" fill="#666"/>
  
  <!-- User Service to DAL -->
  <path d="M370,400 L370,480 L280,480 L280,570" fill="none" stroke="#666" stroke-width="2" stroke-dasharray="5,5"/>
  <polygon points="280,565 275,555 285,555" fill="#666"/>
  
  <!-- Access Management to DAL -->
  <path d="M560,400 L560,470 L310,470 L310,570" fill="none" stroke="#666" stroke-width="2" stroke-dasharray="5,5"/>
  <polygon points="310,565 305,555 315,555" fill="#666"/>
  
  <!-- Solution Service to DAL -->
  <path d="M750,400 L750,460 L340,460 L340,570" fill="none" stroke="#666" stroke-width="2" stroke-dasharray="5,5"/>
  <polygon points="340,565 335,555 345,555" fill="#666"/>
  
  <!-- Installation Service to Solution Service -->
  <path d="M450,470 L650,470 L650,400" fill="none" stroke="#666" stroke-width="2" stroke-dasharray="5,5"/>
  <polygon points="650,405 645,415 655,415" fill="#666"/>
  
  <!-- DAL to Database -->
  <path d="M220,640 L170,730" fill="none" stroke="#666" stroke-width="2"/>
  <polygon points="173,725 165,720 175,730" fill="#666"/>
  
  <path d="M260,640 L330,730" fill="none" stroke="#666" stroke-width="2"/>
  <polygon points="326,725 322,735 334,730" fill="#666"/>
  
  <path d="M305,640 L490,730" fill="none" stroke="#666" stroke-width="2"/>
  <polygon points="486,725 482,735 494,730" fill="#666"/>
  
  <path d="M350,640 L650,730" fill="none" stroke="#666" stroke-width="2"/>
  <polygon points="646,725 642,735 654,730" fill="#666"/>
  
  <path d="M395,640 L800,730" fill="none" stroke="#666" stroke-width="2"/>
  <polygon points="796,725 792,735 804,730" fill="#666"/>
  
  <!-- Legend -->
  <rect x="730" y="830" width="230" height="50" fill="white" stroke="#333" stroke-width="1" rx="5" ry="5"/>
  <circle cx="750" cy="845" r="6" fill="#0288d1"/>
  <text x="765" y="850" font-family="Arial, sans-serif" font-size="14" fill="#333">Presentation</text>
  <circle cx="750" cy="870" r="6" fill="#43a047"/>
  <text x="765" y="875" font-family="Arial, sans-serif" font-size="14" fill="#333">Business Logic</text>
  <circle cx="850" cy="845" r="6" fill="#ef6c00"/>
  <text x="865" y="850" font-family="Arial, sans-serif" font-size="14" fill="#333">Data Access</text>
  <circle cx="850" cy="870" r="6" fill="#3949ab"/>
  <text x="865" y="875" font-family="Arial, sans-serif" font-size="14" fill="#333">Database</text>
</svg>
